<svg width="90" height="90" viewBox="0 0 90 90" fill="none" xmlns="http://www.w3.org/2000/svg">
<g clip-path="url(#clip0_68_26)">
<path d="M81.2109 0H8.78906C3.935 0 0 3.935 0 8.78906V81.2109C0 86.065 3.935 90 8.78906 90H81.2109C86.065 90 90 86.065 90 81.2109V8.78906C90 3.935 86.065 0 81.2109 0Z" fill="#3178C6"/>
<path d="M81.2109 0H8.78906C3.935 0 0 3.935 0 8.78906V81.2109C0 86.065 3.935 90 8.78906 90H81.2109C86.065 90 90 86.065 90 81.2109V8.78906C90 3.935 86.065 0 81.2109 0Z" fill="#3178C6"/>
<path fill-rule="evenodd" clip-rule="evenodd" d="M55.7119 71.6175V80.4173C57.1424 81.1506 58.8343 81.7005 60.7876 82.0672C62.7409 82.4338 64.7995 82.6172 66.9637 82.6172C69.0729 82.6172 71.0764 82.4156 72.9747 82.0122C74.873 81.6089 76.5374 80.9443 77.9679 80.0184C79.3985 79.0928 80.531 77.8827 81.3654 76.3886C82.1999 74.8944 82.6172 73.0475 82.6172 70.8476C82.6172 69.2525 82.3788 67.8547 81.9019 66.654C81.425 65.4532 80.7374 64.3853 79.8386 63.4504C78.94 62.5154 77.8625 61.6765 76.6062 60.934C75.3499 60.1915 73.9331 59.4904 72.3558 58.8305C71.2004 58.3537 70.1641 57.8909 69.2471 57.4418C68.33 56.9925 67.5506 56.5342 66.9087 56.0668C66.2667 55.5993 65.7715 55.1043 65.4231 54.5818C65.0747 54.0592 64.9004 53.4681 64.9004 52.808C64.9004 52.2032 65.0563 51.6577 65.3681 51.1719C65.68 50.686 66.1201 50.269 66.6886 49.9206C67.2572 49.5724 67.954 49.3019 68.7793 49.1094C69.6048 48.9169 70.5217 48.8208 71.5305 48.8208C72.264 48.8208 73.0389 48.8758 73.855 48.9857C74.6712 49.0957 75.4919 49.2653 76.3174 49.4944C77.1427 49.7236 77.9449 50.0124 78.7245 50.3606C79.5039 50.709 80.2238 51.1123 80.884 51.5707V43.3484C79.5452 42.8351 78.0826 42.4547 76.4961 42.2072C74.9097 41.9597 73.0893 41.8359 71.0353 41.8359C68.9444 41.8359 66.9637 42.0606 65.093 42.5097C63.2224 42.9588 61.5763 43.66 60.1548 44.6133C58.7334 45.5667 57.6102 46.7812 56.7849 48.257C55.9596 49.7327 55.5469 51.4972 55.5469 53.5505C55.5469 56.1721 56.3034 58.4088 57.8166 60.2604C59.3295 62.112 61.6266 63.6794 64.7079 64.9628C65.9183 65.4578 67.0463 65.9435 68.0917 66.4202C69.1371 66.8969 70.0404 67.3919 70.8013 67.9052C71.5625 68.4185 72.1631 68.9776 72.6035 69.5827C73.0436 70.1875 73.2637 70.875 73.2637 71.6451C73.2637 72.2134 73.1261 72.7404 72.851 73.2262C72.5759 73.7121 72.1586 74.1336 71.5992 74.4912C71.0399 74.8487 70.3429 75.1282 69.5085 75.3298C68.6739 75.5316 67.6974 75.6323 66.5786 75.6323C64.6712 75.6323 62.7822 75.2978 60.9114 74.6286C59.0407 73.9596 57.3075 72.9559 55.7119 71.6175ZM40.9184 49.9363H52.207V42.7148H20.7422V49.9363H31.9757V82.0898H40.9184V49.9363Z" fill="white"/>
</g>
<defs>
<clipPath id="clip0_68_26">
<rect width="90" height="90" rx="15" fill="white"/>
</clipPath>
</defs>
</svg>
